# xmcd
#
# Track frame offsets:
#   150
#   30072
#   51695
#   86895
#   106976
#   132856
#   158498
#
# Disc length: 2451 seconds
#
# Revision: 0
# Processed by: cddbd v1.5.2PL0 Copyright (c) Steve Scherf et al.
# Submitted via: GXTranscoder 2.0.1939
#
DISCID=50099107
DTITLE=Chingy - Hoodstar Bonus CD
DYEAR=2006
DGENRE=Rap
TTITLE0=Club Gettin' Crowed (Remix)
TTITLE1=Nike Aurr's and Crispy Tee's (Remix)
TTITLE2=Holidae In (Remix)
TTITLE3=Fall-N (Remix)
TTITLE4=One Call Away (Remix)
TTITLE5=Balla Baby (Remix)
TTITLE6=Right Thurr (Remix)
EXTD=
EXTT0=
EXTT1=
EXTT2=
EXTT3=
EXTT4=
EXTT5=
EXTT6=
PLAYORDER=
